<?xml version="1.0" encoding="UTF-8"?>
<!DOCTYPE svg PUBLIC "-//W3C//DTD SVG 1.1//EN" "http://www.w3.org/Graphics/SVG/1.1/DTD/svg11.dtd">
<svg xmlns="http://www.w3.org/2000/svg" xml:space="preserve" width="300mm" height="300mm" version="1.1" style="shape-rendering:geometricPrecision; text-rendering:geometricPrecision; image-rendering:optimizeQuality; fill-rule:evenodd; clip-rule:evenodd"
viewBox="0 0 30000 30000"
 xmlns:xlink="http://www.w3.org/1999/xlink"
 xmlns:xodm="http://www.corel.com/coreldraw/odm/2003">
 <defs>
  <style type="text/css">
   <![CDATA[
    .str0 {stroke:#E3F1FA;stroke-width:141.11;stroke-linecap:round;stroke-miterlimit:22.9256}
    .fil3 {fill:none}
    .fil0 {fill:#59A9E4}
    .fil2 {fill:#E3F1FA}
    .fil1 {fill:#EBA440}
   ]]>
  </style>
 </defs>
 <g id="Слой_x0020_1">
  <metadata id="CorelCorpID_0Corel-Layer"/>
  <g id="_2756083382544">
   <path class="fil0" d="M19129.69 16144.79c-50.83,194.84 1574.35,2003.71 1851.34,2339.93 -775.51,1942.96 -3693.33,5807.75 -4198.99,6238.77 -2209.63,-1321.93 -8067.46,-3116.03 -9293.54,-4567.35 -224.33,-2404.47 3513.64,-3338.86 180.97,-4680.5 -80.17,-604.3 -517.07,-1993.41 18.27,-3279.53 444.56,-1068.03 855.58,-2394.57 127.9,-2676.85 -1061.58,-411.83 -2518.89,2301.17 -2685.14,4037.61 -308.38,3221.01 -1168.88,-105.7 -90.66,-2684.25 2070.73,-4802.79 6093.41,-6434.1 9148.15,-5154.18 2138.32,895.98 4987.75,1499.21 6483.41,698.29 6387.08,-3038.92 -10807.08,-10557.96 -17690.98,3188.66 -549.34,1509.62 -1029.99,2926.16 -1074.86,4281.65 -285.6,8627.78 5902.67,13842.2 12650.52,14268.33 6574.52,415.2 13458.67,-3757.9 14333.92,-13179.49 79.71,-1364.6 172.74,-5620.5 -3929.02,-7960.38 -76.95,-43.92 1324.89,3125.64 510.19,4704.64 -1082.46,-142.91 -2159.14,147.14 -2910.9,1079.4 -248,-166.33 -578.85,-2686.22 -4168.38,-2810.83 -288.85,-10.01 1647.74,1208.37 1997.84,3246.29 81.25,931.46 -207.31,1690.06 -654.75,2469.4 -334.73,583.06 -240.33,254.7 -605.29,440.39z"/>
   <path class="fil1" d="M21185.68 19058.76c835.12,-2507.61 -76.73,-2886.78 -2084.69,-4045.88 -2420.91,-1397.48 -5483.68,-3074.69 -8070.45,-3919.48 -815.62,-266.37 -1565.05,-90.84 -2108.83,625.68 -1018.24,1341.72 -2132.34,3701.34 -2673.92,5320.46 -847.39,2533.35 104.56,2854.18 2096.45,4032.93 1824.95,1079.93 6158.68,3333.25 8082.06,3940.67 836.67,264.23 1585.28,30.42 2091.63,-664.11 1076.88,-1477.09 2085.04,-3540.54 2667.75,-5290.27z"/>
   <path class="fil0" d="M13796.49 13877.71c610.61,2700.67 3865.01,1490.33 3591.41,31.16 -262.27,-1398.77 -4202.76,-2735.23 -3591.41,-31.16z"/>
   <path class="fil2" d="M22581.06 15423.38c967.42,-231.66 766.44,787.24 76.79,967.31 -875.06,228.48 -885.92,-773.53 -76.79,-967.31zm-333.7 -329.15c-1132.39,278.33 -1389.29,1935.6 596.16,1544.81 1654.44,-325.61 599.25,-1838.68 -596.16,-1544.81z"/>
   <path class="fil0" d="M22524.36 15444.59c-806.3,193.1 -795.48,1191.6 76.52,963.93 687.24,-179.44 887.51,-1194.78 -76.52,-963.93z"/>
   <path class="fil0" d="M22049.93 22275.13c-563.53,743.91 -1569.01,1097.71 -2676.03,1174.83 -1107.02,77.11 -2315.61,-122.49 -2940.21,-707.63 -624.6,-585.11 -665.22,-1555.82 -162.51,-1973.12 502.74,-417.31 1548.84,-281.21 2736.98,-439.98 1188.14,-158.74 2518.34,-612.36 3122.62,-272.17 604.3,340.22 482.69,1474.19 -80.85,2218.07z"/>
   <path class="fil2" d="M26255.27 15204.06c-967.42,-231.66 -766.44,787.24 -76.79,967.32 875.06,228.47 885.92,-773.54 76.79,-967.32zm333.7 -329.15c1132.39,278.33 1389.29,1935.61 -596.16,1544.81 -1654.44,-325.61 -599.25,-1838.67 596.16,-1544.81z"/>
   <path class="fil0" d="M26185.7 15226.04c806.29,193.1 795.47,1191.6 -76.52,963.93 -687.24,-179.45 -887.52,-1194.78 76.52,-963.93z"/>
   <path class="fil2" d="M23989.47 16480.63c154.74,-141.16 738.86,-117.82 876.18,34.98 137.35,152.83 -172.08,435.11 -464.13,423.43 -292.05,-11.65 -566.75,-317.26 -412.05,-458.41z"/>
   <path class="fil3 str0" d="M22695.74 17089.99c293.95,233.14 587.89,466.28 836.77,483.9 248.88,17.62 452.71,-180.28 675.19,-176.22 222.48,4.06 463.63,210.1 731.7,201.96 268.06,-8.12 563.06,-230.41 858.05,-452.69"/>
   <path class="fil2" d="M11498.32 20579.59l2367.28 -321.61c608.99,-86.47 1464.59,-180.29 2033.31,-279.45 232.55,-40.55 447.54,-136.28 561.17,-367.32 214.85,-436.84 -176.34,-854.03 -437.53,-1260 -614.89,-955.75 -1232.99,-1908.88 -1851.54,-2862.24 -92.62,-146.03 -174.27,-295.72 -295.2,-420.9 -271.5,-281.06 -657.22,-316.7 -940.44,-44.58 -177.58,170.62 -302.91,501.01 -410.69,740.63 -501.72,1115.4 -1025.45,2209.62 -1525.52,3324.29 -161.93,360.98 -489.69,875.91 -160.47,1262.09 161.88,189.87 421.32,238.23 659.63,229.09z"/>
  </g>
 </g>
</svg>
