<?xml version="1.0" encoding="UTF-8"?>
<!DOCTYPE svg PUBLIC "-//W3C//DTD SVG 1.1//EN" "http://www.w3.org/Graphics/SVG/1.1/DTD/svg11.dtd">
<svg xmlns="http://www.w3.org/2000/svg" xml:space="preserve" width="300mm" height="300mm" version="1.1" style="shape-rendering:geometricPrecision; text-rendering:geometricPrecision; image-rendering:optimizeQuality; fill-rule:evenodd; clip-rule:evenodd"
viewBox="0 0 30000 30000"
 xmlns:xlink="http://www.w3.org/1999/xlink"
 xmlns:xodm="http://www.corel.com/coreldraw/odm/2003">
 <defs>
  <style type="text/css">
   <![CDATA[
    .fil0 {fill:#59A9E4}
    .fil2 {fill:#E3F1FA}
    .fil1 {fill:#EBA440}
   ]]>
  </style>
 </defs>
 <g id="Слой_x0020_1">
  <metadata id="CorelCorpID_0Corel-Layer"/>
  <g id="_2726289089936">
   <path class="fil0" d="M19133.75 16407.91c-56.44,220.04 1748.2,2262.75 2055.77,2642.43 -861.14,2194.15 -4101.16,6558.56 -4662.65,7045.29 -2453.64,-1492.82 -8958.32,-3518.85 -10319.79,-5157.79 -249.1,-2715.31 3901.64,-3770.5 200.95,-5285.58 -89.02,-682.42 -574.16,-2251.11 20.29,-3703.49 493.65,-1206.11 950.05,-2704.13 142.02,-3022.9 -1178.8,-465.07 -2797.04,2598.66 -2981.65,4559.58 -342.43,3637.4 -1297.95,-119.37 -100.67,-3031.26 2299.4,-5423.69 6766.28,-7265.88 10158.34,-5820.49 2374.44,1011.8 5538.53,1693.01 7199.35,788.56 7092.37,-3431.78 -12000.45,-11922.86 -19644.52,3600.87 -609.99,1704.78 -1143.73,3304.44 -1193.55,4835.17 -317.13,9743.14 6554.48,15631.65 14047.46,16112.88 7300.52,468.87 14944.85,-4243.71 15916.75,-14883.29 88.51,-1541.01 191.81,-6347.09 -4362.88,-8989.46 -85.45,-49.59 1471.18,3529.71 566.53,5312.83 -1201.99,-161.38 -2397.57,166.17 -3232.34,1218.94 -275.39,-187.83 -642.78,-3033.47 -4628.68,-3174.2 -320.74,-11.3 1829.7,1364.59 2218.45,3665.97 90.22,1051.87 -230.2,1908.54 -727.04,2788.63 -371.71,658.43 -266.87,287.62 -672.14,497.31z"/>
   <path class="fil1" d="M21416.78 19698.59c927.34,-2831.78 -85.2,-3259.97 -2314.89,-4568.92 -2688.25,-1578.13 -6089.22,-3472.17 -8961.64,-4426.17 -905.69,-300.8 -1737.87,-102.57 -2341.7,706.57 -1130.68,1515.17 -2367.8,4179.84 -2969.19,6008.27 -940.96,2860.85 116.11,3223.16 2327.96,4554.29 2026.46,1219.54 6838.75,3764.16 8974.52,4450.1 929.06,298.39 1760.33,34.35 2322.6,-749.96 1195.79,-1668.04 2315.28,-3998.25 2962.34,-5974.18z"/>
   <path class="fil2" d="M15508.07 19742.94c83.01,-15.57 28.43,-1.51 68.52,-20.58l-2727.82 -4258.65 -2132.18 4599.07 4791.48 -319.84z"/>
   <path class="fil0" d="M13211.63 13847.76c678.04,3049.8 4291.81,1682.99 3988,35.19 -291.23,-1579.6 -4666.86,-3088.83 -3988,-35.19z"/>
   <path class="fil2" d="M22595.7 15221.54c-1257.44,314.31 -1542.71,2185.84 661.99,1744.52 1837.13,-367.7 665.42,-2076.37 -661.99,-1744.52z"/>
   <path class="fil0" d="M22376.47 23330.76c-625.77,840.09 -1742.28,1239.62 -2971.54,1326.71 -1229.26,87.08 -2571.31,-138.33 -3264.88,-799.11 -693.58,-660.75 -738.68,-1756.95 -180.46,-2228.2 558.26,-471.25 1719.88,-317.56 3039.22,-496.86 1319.33,-179.26 2796.42,-691.52 3467.43,-307.35 671.04,384.2 535.99,1664.76 -89.77,2504.81z"/>
   <path class="fil2" d="M27416.72 14973.87c1257.44,314.31 1542.72,2185.84 -661.99,1744.52 -1837.13,-367.7 -665.42,-2076.37 661.99,-1744.52z"/>
   <path class="fil2" d="M10659.69 21416.05l2628.68 -363.18c676.24,-97.65 1626.32,-203.6 2257.85,-315.58 258.23,-45.79 496.95,-153.9 623.13,-414.8 238.57,-493.32 -195.81,-964.44 -485.84,-1422.89 -682.79,-1079.31 -1369.15,-2155.66 -2056,-3232.26 -102.85,-164.91 -193.51,-333.95 -327.79,-475.31 -301.49,-317.4 -729.8,-357.65 -1044.3,-50.34 -197.19,192.67 -336.35,565.77 -456.04,836.37 -557.12,1259.59 -1138.69,2495.27 -1693.97,3754.05 -179.82,407.63 -543.77,989.13 -178.19,1425.23 179.75,214.43 467.84,269.03 732.47,258.71z"/>
  </g>
 </g>
</svg>
